<svg xmlns="http://www.w3.org/2000/svg" viewBox="0 0 1997.86 361.23"><defs><style>.cls-1,.cls-3{fill:#37383e;}.cls-2{fill:#f7870d;}.cls-3{font-size:223.06px;font-family:Roboto-Light, Roboto;font-weight:300;}.cls-4{letter-spacing:-0.02em;}</style></defs><g id="Layer_2" data-name="Layer 2"><g id="Layer_1-2" data-name="Layer 1"><path class="cls-1" d="M368.35,240.41c-16.73,23.16-42.15,39.13-69.6,39.13H233.07l-88.46,81.69H288.76c91.27,0,162.08-44.73,186.09-120.82Z"/><path class="cls-1" d="M288.22,0H144.32l86.47,81.48H297c43.26,2.46,71.32,24.52,83.85,56.35h98.63C461.29,51.23,386.76,0,288.22,0Z"/><path class="cls-2" d="M478.09,231.74H225.38l0,42.87-8.52,7.91-77.72,71.76V231.74H90.43L0,146.62H139.16V7.44L225.4,88.7l0,57.66H481.5c1.9,11.19,2.22,21.72,2.22,34C483.72,198.58,482.2,215.91,478.09,231.74Z"/><text class="cls-3" transform="translate(513.25 245.8)">daniellab<tspan class="cls-4" x="874.25" y="0">r</tspan><tspan x="944.94" y="0">ador_</tspan></text></g></g></svg>